<svg width="360.832373046875px" height="105.2506103515625px" xmlns="http://www.w3.org/2000/svg" viewBox="69.58381347656251 22.37469482421875 360.832373046875 105.2506103515625" style="background: rgba(0, 0, 0, 0);" preserveAspectRatio="xMidYMid"><defs><linearGradient id="editing-gradient-gradient" x1="0" x2="1" y1="0.5" y2="0.5" gradientUnits="objectBoundingBox"><stop offset="0" stop-color="#000000"></stop><stop offset="1" stop-color="#000000"></stop></linearGradient></defs><g><g transform="translate(124.9301495552063, 93.64500045776367)"><path d="M18.72-36.45L18.72-36.45Q23.30-36.45 26.08-33.64L26.08-33.64L26.08-33.64Q28.86-30.84 28.86-26.26L28.86-26.26L28.86-26.26Q28.86-21.74 26.03-18.98L26.03-18.98L26.03-18.98Q23.19-16.22 18.56-16.22L18.56-16.22L8.48-16.22L8.48-16.22Q8.22-16.22 8.22-15.96L8.22-15.96L8.22-0.68L8.22-0.68Q8.22 0 7.54 0L7.54 0L5.20 0L5.20 0Q4.52 0 4.52-0.68L4.52-0.68L4.52-35.78L4.52-35.78Q4.52-36.45 5.20-36.45L5.20-36.45L18.72-36.45ZM18.30-19.29L18.30-19.29Q21.37-19.29 23.30-21.19L23.30-21.19L23.30-21.19Q25.22-23.09 25.22-26.21L25.22-26.21L25.22-26.21Q25.22-29.38 23.30-31.30L23.30-31.30L23.30-31.30Q21.37-33.23 18.30-33.23L18.30-33.23L8.48-33.23L8.48-33.23Q8.22-33.23 8.22-32.97L8.22-32.97L8.22-19.55L8.22-19.55Q8.22-19.29 8.48-19.29L8.48-19.29L18.30-19.29ZM46.90 0.42L46.90 0.42Q43.21 0.42 40.40-1.09L40.40-1.09L40.40-1.09Q37.60-2.60 36.06-5.33L36.06-5.33L36.06-5.33Q34.53-8.06 34.53-11.65L34.53-11.65L34.53-24.75L34.53-24.75Q34.53-28.34 36.06-31.07L36.06-31.07L36.06-31.07Q37.60-33.80 40.40-35.31L40.40-35.31L40.40-35.31Q43.21-36.82 46.90-36.82L46.90-36.82L46.90-36.82Q50.60-36.82 53.43-35.31L53.43-35.31L53.43-35.31Q56.26-33.80 57.80-31.07L57.80-31.07L57.80-31.07Q59.33-28.34 59.33-24.75L59.33-24.75L59.33-11.65L59.33-11.65Q59.33-8.06 57.80-5.33L57.80-5.33L57.80-5.33Q56.26-2.60 53.43-1.09L53.43-1.09L53.43-1.09Q50.60 0.42 46.90 0.42L46.90 0.42ZM46.90-2.76L46.90-2.76Q50.86-2.76 53.25-5.15L53.25-5.15L53.25-5.15Q55.64-7.54 55.64-11.49L55.64-11.49L55.64-24.80L55.64-24.80Q55.64-28.76 53.25-31.17L53.25-31.17L53.25-31.17Q50.86-33.59 46.90-33.59L46.90-33.59L46.90-33.59Q43.00-33.59 40.61-31.17L40.61-31.17L40.61-31.17Q38.22-28.76 38.22-24.80L38.22-24.80L38.22-11.49L38.22-11.49Q38.22-7.54 40.61-5.15L40.61-5.15L40.61-5.15Q43.00-2.76 46.90-2.76L46.90-2.76ZM79.09 0.42L79.09 0.42Q75.45 0.42 72.70-1.01L72.70-1.01L72.70-1.01Q69.94-2.44 68.41-5.04L68.41-5.04L68.41-5.04Q66.87-7.64 66.87-11.02L66.87-11.02L66.87-25.38L66.87-25.38Q66.87-28.76 68.41-31.36L68.41-31.36L68.41-31.36Q69.94-33.96 72.70-35.39L72.70-35.39L72.70-35.39Q75.45-36.82 79.09-36.82L79.09-36.82L79.09-36.82Q82.68-36.82 85.46-35.41L85.46-35.41L85.46-35.41Q88.24-34.01 89.75-31.49L89.75-31.49L89.75-31.49Q91.26-28.96 91.26-25.79L91.26-25.79L91.26-25.27L91.26-25.27Q91.26-24.60 90.58-24.60L90.58-24.60L88.24-24.60L88.24-24.60Q87.57-24.60 87.57-25.17L87.57-25.17L87.57-25.74L87.57-25.74Q87.57-29.22 85.25-31.41L85.25-31.41L85.25-31.41Q82.94-33.59 79.09-33.59L79.09-33.59L79.09-33.59Q75.24-33.59 72.90-31.36L72.90-31.36L72.90-31.36Q70.56-29.12 70.56-25.48L70.56-25.48L70.56-10.92L70.56-10.92Q70.56-7.28 72.96-5.04L72.96-5.04L72.96-5.04Q75.35-2.81 79.25-2.81L79.25-2.81L79.25-2.81Q83.04-2.81 85.31-4.89L85.31-4.89L85.31-4.89Q87.57-6.97 87.57-10.45L87.57-10.45L87.57-15.13L87.57-15.13Q87.57-15.39 87.31-15.39L87.31-15.39L79.87-15.39L79.87-15.39Q79.20-15.39 79.20-16.07L79.20-16.07L79.20-17.94L79.20-17.94Q79.20-18.62 79.87-18.62L79.87-18.62L90.58-18.62L90.58-18.62Q91.26-18.62 91.26-17.94L91.26-17.94L91.26-11.39L91.26-11.39Q91.26-5.82 87.96-2.70L87.96-2.70L87.96-2.70Q84.66 0.42 79.09 0.42L79.09 0.42ZM110.60 0.47L110.60 0.47Q106.96 0.47 104.21-0.96L104.21-0.96L104.21-0.96Q101.45-2.39 99.92-5.02L99.92-5.02L99.92-5.02Q98.38-7.64 98.38-11.08L98.38-11.08L98.38-25.38L98.38-25.38Q98.38-28.76 99.92-31.36L99.92-31.36L99.92-31.36Q101.45-33.96 104.21-35.39L104.21-35.39L104.21-35.39Q106.96-36.82 110.60-36.82L110.60-36.82L110.60-36.82Q114.24-36.82 117-35.41L117-35.41L117-35.41Q119.76-34.01 121.29-31.46L121.29-31.46L121.29-31.46Q122.82-28.91 122.82-25.58L122.82-25.58L122.82-25.58Q122.82-25.12 122.15-25.01L122.15-25.01L119.81-24.86L119.65-24.86L119.65-24.86Q119.44-24.86 119.29-24.96L119.29-24.96L119.29-24.96Q119.13-25.06 119.13-25.17L119.13-25.17L119.13-25.48L119.13-25.48Q119.13-29.17 116.79-31.38L116.79-31.38L116.79-31.38Q114.45-33.59 110.60-33.59L110.60-33.59L110.60-33.59Q106.76-33.59 104.42-31.36L104.42-31.36L104.42-31.36Q102.08-29.12 102.08-25.48L102.08-25.48L102.08-10.92L102.08-10.92Q102.08-7.28 104.42-5.04L104.42-5.04L104.42-5.04Q106.76-2.81 110.60-2.81L110.60-2.81L110.60-2.81Q114.45-2.81 116.79-5.02L116.79-5.02L116.79-5.02Q119.13-7.23 119.13-10.92L119.13-10.92L119.13-10.92Q119.13-11.54 119.81-11.49L119.81-11.49L122.15-11.39L122.15-11.39Q122.82-11.39 122.82-11.13L122.82-11.13L122.82-10.87L122.82-10.87Q122.82-7.49 121.29-4.91L121.29-4.91L121.29-4.91Q119.76-2.34 117-0.94L117-0.94L117-0.94Q114.24 0.47 110.60 0.47L110.60 0.47ZM152.46 0L152.46 0Q151.89 0 151.63-0.52L151.63-0.52L144.04-16.54L144.04-16.54Q143.94-16.74 143.73-16.74L143.73-16.74L135.04-16.74L135.04-16.74Q134.78-16.74 134.78-16.48L134.78-16.48L134.78-0.68L134.78-0.68Q134.78 0 134.11 0L134.11 0L131.77 0L131.77 0Q131.09 0 131.09-0.68L131.09-0.68L131.09-35.78L131.09-35.78Q131.09-36.45 131.77-36.45L131.77-36.45L145.08-36.45L145.08-36.45Q149.55-36.45 152.31-33.70L152.31-33.70L152.31-33.70Q155.06-30.94 155.06-26.47L155.06-26.47L155.06-26.47Q155.06-22.83 153.11-20.31L153.11-20.31L153.11-20.31Q151.16-17.78 147.78-17.00L147.78-17.00L147.78-17.00Q147.52-16.95 147.63-16.69L147.63-16.69L155.38-0.78L155.38-0.78Q155.48-0.57 155.48-0.47L155.48-0.47L155.48-0.47Q155.48 0 154.86 0L154.86 0L152.46 0ZM135.04-33.23L135.04-33.23Q134.78-33.23 134.78-32.97L134.78-32.97L134.78-19.97L134.78-19.97Q134.78-19.71 135.04-19.71L135.04-19.71L144.66-19.71L144.66-19.71Q147.68-19.71 149.55-21.55L149.55-21.55L149.55-21.55Q151.42-23.40 151.42-26.42L151.42-26.42L151.42-26.42Q151.42-29.43 149.55-31.33L149.55-31.33L149.55-31.33Q147.68-33.23 144.66-33.23L144.66-33.23L135.04-33.23ZM184.60 0L184.60 0Q184.03 0 183.87-0.57L183.87-0.57L181.79-6.92L181.79-6.92Q181.69-7.12 181.53-7.12L181.53-7.12L166.04-7.12L166.04-7.12Q165.88-7.12 165.78-6.92L165.78-6.92L163.75-0.57L163.75-0.57Q163.59 0 163.02 0L163.02 0L160.52 0L160.52 0Q160.16 0 160.00-0.21L160.00-0.21L160.00-0.21Q159.85-0.42 159.95-0.78L159.95-0.78L171.39-35.83L171.39-35.83Q171.55-36.40 172.12-36.40L172.12-36.40L175.45-36.40L175.45-36.40Q176.02-36.40 176.18-35.83L176.18-35.83L187.67-0.78L187.67-0.78Q187.72-0.68 187.72-0.52L187.72-0.52L187.72-0.52Q187.72-0.31 187.54-0.16L187.54-0.16L187.54-0.16Q187.36 0 187.10 0L187.10 0L184.60 0ZM166.92-10.45L166.92-10.45Q166.87-10.14 167.13-10.14L167.13-10.14L180.49-10.14L180.49-10.14Q180.80-10.14 180.70-10.45L180.70-10.45L173.94-31.72L173.94-31.72Q173.89-31.93 173.78-31.93L173.78-31.93L173.78-31.93Q173.68-31.93 173.63-31.72L173.63-31.72L166.92-10.45ZM192.61 0L192.61 0Q191.93 0 191.93-0.68L191.93-0.68L191.93-2.91L191.93-2.91Q191.93-3.33 192.19-3.74L192.19-3.74L211.12-32.86L211.12-32.86Q211.28-33.18 210.96-33.18L210.96-33.18L192.61-33.18L192.61-33.18Q191.93-33.18 191.93-33.85L191.93-33.85L191.93-35.72L191.93-35.72Q191.93-36.40 192.61-36.40L192.61-36.40L214.71-36.40L214.71-36.40Q215.38-36.40 215.38-35.72L215.38-35.72L215.38-33.49L215.38-33.49Q215.38-33.07 215.12-32.66L215.12-32.66L196.25-3.54L196.25-3.54Q196.09-3.22 196.40-3.22L196.40-3.22L214.71-3.22L214.71-3.22Q215.38-3.22 215.38-2.55L215.38-2.55L215.38-0.68L215.38-0.68Q215.38 0 214.71 0L214.71 0L192.61 0ZM231.71-0.05L231.71-0.05Q231.04-0.05 231.04-0.73L231.04-0.73L231.04-15.96L231.04-15.96Q231.04-16.07 230.93-16.28L230.93-16.28L220.27-35.57L220.27-35.57Q220.17-35.88 220.17-35.93L220.17-35.93L220.17-35.93Q220.17-36.14 220.32-36.27L220.32-36.27L220.32-36.27Q220.48-36.40 220.74-36.40L220.74-36.40L223.24-36.40L223.24-36.40Q223.81-36.40 224.02-35.93L224.02-35.93L232.70-20.23L232.70-20.23Q232.86-20.02 233.01-20.23L233.01-20.23L241.75-35.93L241.75-35.93Q242.01-36.40 242.53-36.40L242.53-36.40L245.02-36.40L245.02-36.40Q245.44-36.40 245.57-36.17L245.57-36.17L245.57-36.17Q245.70-35.93 245.49-35.57L245.49-35.57L234.83-16.28L234.83-16.28Q234.73-16.07 234.73-15.96L234.73-15.96L234.73-0.73L234.73-0.73Q234.73-0.05 234.05-0.05L234.05-0.05L231.71-0.05Z" fill="url(#editing-gradient-gradient)"></path></g></g><style>text {
  font-size: 64px;
  font-family: Arial Black;
  dominant-baseline: central;
  text-anchor: middle;
}</style></svg>